<svg id="_x33_0" enable-background="new 0 0 62 62" height="512" viewBox="0 0 62 62" width="512" xmlns="http://www.w3.org/2000/svg"><g><g><path d="m1 50v6c0 .552.448 1 1 1h18c.552 0 1-.448 1-1v-6z" fill="#f0bc5e"/></g><g><path d="m41 50v6c0 .552.448 1 1 1h18c.552 0 1-.448 1-1v-6z" fill="#f0bc5e"/></g><g><path d="m20 40h-18c-1.103 0-2 .897-2 2v14c0 1.103.897 2 2 2h4v2h-2v2h14v-2h-2v-2h4c1.103 0 2-.897 2-2v-14c0-1.103-.897-2-2-2zm-6 20h-6v-2h6zm4-4v-2h-2v2h-2v-2h-2v2h-10v-14h18l.002 14z"/><path d="m60 40h-18c-1.103 0-2 .897-2 2v2h-5c-.552 0-1-.448-1-1v-15h21.385c3.647 0 6.615-2.968 6.615-6.615 0-3.041-2.061-5.681-5.012-6.418l-3.042-.761-.031-.428c-.552-7.726-7.052-13.778-14.797-13.778-3.538 0-6.968 1.269-9.654 3.571l-2.61 2.237-1.04-.52c-1.686-.842-3.574-1.288-5.46-1.288-5.904 0-10.955 4.216-12.01 10.024l-.196 1.074-2.619.327c-3.152.395-5.529 3.088-5.529 6.263 0 3.481 2.831 6.312 6.312 6.312h21.688v19c0 .552-.448 1-1 1h-1.131l.963-1.445-1.664-1.109-2.37 3.554 2.37 3.555 1.664-1.109-.963-1.446h1.131c1.654 0 3-1.346 3-3v-19c0-1.103-.897-2-2-2h-21.688c-2.377 0-4.312-1.935-4.312-4.312 0-2.169 1.624-4.009 3.776-4.278l4.076-.509.458-2.52c.884-4.856 5.108-8.381 10.044-8.381 1.576 0 3.155.373 4.564 1.078l2.228 1.113 3.618-3.102c2.326-1.991 5.293-3.089 8.354-3.089 6.701 0 12.324 5.236 12.803 11.921l.133 1.873 4.45 1.112c2.058.515 3.496 2.357 3.496 4.479 0 2.545-2.07 4.615-4.615 4.615h-21.385v-5.586l2.293 2.293 1.414-1.414-4.707-4.707-4.707 4.707 1.414 1.414 2.293-2.293v22.586c0 1.654 1.346 3 3 3h5v10c0 1.103.897 2 2 2h4v2h-2v2h14v-2h-2v-2h4c1.103 0 2-.897 2-2v-14c0-1.103-.897-2-2-2zm-6 20h-6v-2h6zm4-4v-2h-2v2h-2v-2h-2v2h-10v-14h18l.002 14z"/><path d="m6 34h2v2h-2z"/><path d="m10 34h2v2h-2z"/><path d="m14 34h2v2h-2z"/><path d="m18 34h2v2h-2z"/><path d="m42 34h2v2h-2z"/><path d="m46 34h2v2h-2z"/><path d="m50 34h2v2h-2z"/><path d="m54 34h2v2h-2z"/></g></g></svg>