<?xml version="1.0" encoding="iso-8859-1"?>
<!-- Generator: Adobe Illustrator 22.1.0, SVG Export Plug-In . SVG Version: 6.00 Build 0)  -->
<svg xmlns="http://www.w3.org/2000/svg" xmlns:xlink="http://www.w3.org/1999/xlink" version="1.1" id="Layer_1_1_" x="0px" y="0px" viewBox="0 0 64 64" style="enable-background:new 0 0 64 64;" xml:space="preserve" width="512" height="512">
<g>
	<g>
		<rect x="20" y="56" style="fill:#838F9B;" width="24" height="6"/>
		<path style="fill:#969FAA;" d="M6,56c-2.21,0-4-1.79-4-4v-4h13l3,2h44v2c0,2.21-1.79,4-4,4H44H20H6z"/>
		<path style="fill:#69D6F4;" d="M45,24c1.1,0,2-0.9,2-2v-6h11c2.21,0,4,1.79,4,4v30H18l-3-2H2V20c0-2.21,1.79-4,4-4h11v6    c0,1.1,0.9,2,2,2h7l8,4v-4H45z"/>
		<rect x="42" y="28" style="fill:#8CC152;" width="14" height="4"/>
		<rect x="42" y="36" style="fill:#8CC152;" width="14" height="4"/>
		<path style="fill:#B4DD7F;" d="M42,40h14h1c0.55,0,1,0.45,1,1v2c0,0.55-0.45,1-1,1H41c-0.55,0-1-0.45-1-1v-2c0-0.55,0.45-1,1-1H42    z"/>
		<path style="fill:#B4DD7F;" d="M42,32h14h1c0.55,0,1,0.45,1,1v2c0,0.55-0.45,1-1,1h-1H42h-1c-0.55,0-1-0.45-1-1v-2    c0-0.55,0.45-1,1-1H42z"/>
		<path style="fill:#B4DD7F;" d="M58,25v2c0,0.55-0.45,1-1,1h-1H42h-1c-0.55,0-1-0.45-1-1v-2c0-0.55,0.45-1,1-1h4h12    C57.55,24,58,24.45,58,25z"/>
		<path style="fill:#FCD770;" d="M45,6h-9h-0.01H28h-9c-1.1,0-2,0.9-2,2v8v6c0,1.1,0.9,2,2,2h7l8,4v-4h7h4c1.1,0,2-0.9,2-2v-6V8    C47,6.9,46.1,6,45,6z"/>
		<path style="fill:#E6E9ED;" d="M36,6.21V8c0,1.48-0.81,2.75-2,3.45V13l4.12,1.18C39.82,14.66,41,16.22,41,18v2H23v-2    c0-1.78,1.18-3.34,2.88-3.82L30,13v-1.55c-1.19-0.7-2-1.97-2-3.45V6c0-2.33,1.99-4.19,4.36-3.98C34.39,2.19,35.9,3.97,35.99,6    C36,6.07,36,6.14,36,6.21z"/>
	</g>
	<g>
		<rect x="13" y="51" width="2" height="2"/>
		<rect x="9" y="51" width="2" height="2"/>
		<rect x="5" y="51" width="2" height="2"/>
		<path d="M58,15H48V8c0-1.654-1.346-3-3-3h-8.153c-0.494-2.131-2.243-3.793-4.401-3.98c-1.406-0.121-2.794,0.351-3.823,1.294    C27.84,3.03,27.315,3.976,27.105,5H19c-1.654,0-3,1.346-3,3v5h2V8c0-0.552,0.448-1,1-1h8v1c0,1.563,0.754,3.04,2,3.979v0.267    l-3.39,0.968C23.484,13.822,22,15.79,22,18v3h20v-3c0-2.21-1.484-4.178-3.61-4.786L35,12.246v-0.267C36.246,11.04,37,9.563,37,8V7    h8c0.552,0,1,0.448,1,1v14c0,0.552-0.448,1-1,1h-4h-8v3.382L26.236,23H19c-0.552,0-1-0.448-1-1v-7H6c-2.757,0-5,2.243-5,5v32    c0,2.757,2.243,5,5,5h13v4h-4v2h34v-2h-4v-4h13c2.757,0,5-2.243,5-5V20C63,17.243,60.757,15,58,15z M35,8    c0,1.068-0.562,2.033-1.503,2.581L33,10.87v2.884l4.841,1.384C39.112,15.501,40,16.678,40,18v1H24v-1    c0-1.322,0.888-2.499,2.159-2.862L31,13.754V10.87l-0.497-0.289C29.562,10.033,29,9.068,29,8V6c0-0.839,0.354-1.645,0.974-2.212    c0.626-0.575,1.447-0.848,2.298-0.776C33.802,3.145,35,4.548,35,6.207V8z M45,25h12v2H41l-0.002-2H41H45z M57,41v2H41l-0.002-2H41    H57z M43,39v-2h12v2H43z M41,35l-0.002-2H41h16v2H41z M43,31v-2h12v2H43z M6,17h10v5c0,1.654,1.346,3,3,3h6.764L35,29.618V25h4v2    c0,1.103,0.897,2,2,2v2c-1.103,0-2,0.897-2,2v2c0,1.103,0.897,2,2,2v2c-1.103,0-2,0.897-2,2v2c0,1.103,0.897,2,2,2h16    c1.103,0,2-0.897,2-2v-2c0-1.103-0.897-2-2-2v-2c1.103,0,2-0.897,2-2v-2c0-1.103-0.897-2-2-2v-2c1.103,0,2-0.897,2-2v-2    c0-1.103-0.897-2-2-2h-9.184C47.928,22.686,48,22.352,48,22v-5h10c1.654,0,3,1.346,3,3v29H18.303l-3-2H3V20    C3,18.346,4.346,17,6,17z M58,55H23v2h20v4H21v-6H6c-1.654,0-3-1.346-3-3v-3h11.697l3,2H61v1C61,53.654,59.654,55,58,55z"/>
		<rect x="5" y="43" width="2" height="2"/>
		<rect x="9" y="43" width="16" height="2"/>
		<rect x="5" y="39" width="2" height="2"/>
		<rect x="9" y="39" width="16" height="2"/>
		<rect x="5" y="35" width="2" height="2"/>
		<rect x="9" y="35" width="16" height="2"/>
		<rect x="5" y="31" width="2" height="2"/>
		<rect x="9" y="31" width="16" height="2"/>
		<rect x="5" y="27" width="2" height="2"/>
		<rect x="9" y="27" width="16" height="2"/>
	</g>
</g>
</svg>
