<svg height="480pt" viewBox="0 0 480 480" width="480pt" xmlns="http://www.w3.org/2000/svg"><path d="m159.992188 56-48 88v264c0 17.671875 14.328124 32 32 32h224v-296l48-88zm0 0" fill="#4398d1"/><path d="m471.992188 144v264c0 17.671875-14.324219 32-32 32h-72v-296l48-88zm0 0" fill="#e3584b"/><path d="m159.992188 8h256v48h-256zm0 0" fill="#ffc24f"/><path d="m367.992188 368v72h72c17.675781 0 32-14.328125 32-32v-144zm0 0" fill="#d45246"/><path d="m215.992188 368h-8c.019531-9.515625-5.601563-18.136719-14.320313-21.953125-8.714844-3.820313-18.863281-2.109375-25.847656 4.351563-.796875-12.574219-11.230469-22.363282-23.832031-22.363282-12.597657 0-23.03125 9.789063-23.832032 22.363282-6.980468-6.460938-17.132812-8.171876-25.847656-4.351563-8.714844 3.816406-14.335938 12.4375-14.320312 21.953125h-8c-13.253907 0-24 10.746094-24 24s10.746093 24 24 24h144c13.257812 0 24-10.746094 24-24s-10.742188-24-24-24zm0 0" fill="#ffc24f"/><path d="m279.992188 472h-272l24-72h224zm0 0" fill="#e3584b"/><path d="m325.019531 104-37.027343 32 24 32h8c17.449218-15.078125 20.800781-46.929688 5.027343-64zm0 0" fill="#c7cacc"/><path d="m175.992188 168h8l24-32-36.132813-32c-8.066406 8.976562-12.175781 20.828125-11.394531 32.871094.777344 12.042968 6.375 23.265625 15.527344 31.128906zm0 0" fill="#c7cacc"/><path d="m247.992188 328c-39.761719 0-72-32.234375-72-72v-88l32-32h80l32 32v88c0 39.765625-32.234376 72-72 72zm0 0" fill="#d6d9db"/><path d="m271.992188 308c0-11.046875-10.742188-20-24-20-13.253907 0-24 8.953125-24 20s10.746093 20 24 20c13.257812 0 24-8.953125 24-20zm0 0" fill="#5e5e5e"/><path d="m319.992188 168h-32c-17.671876 0-32 14.328125-32 32s14.328124 32 32 32h32" fill="#5e5e5e"/><path d="m199.992188 192h16v16h-16zm0 0" fill="#5e5e5e"/><path d="m279.992188 192h16v16h-16zm0 0" fill="#d6d9db"/><path d="m399.992188 360h40v32h-40zm0 0" fill="#ffc24f"/><path d="m295.992188 400h48v16h-48zm0 0" fill="#22689c"/><path d="m295.992188 368h48v16h-48zm0 0" fill="#22689c"/><g fill="#c74a44"><path d="m391.992188 320h40v16h-40zm0 0"/><path d="m391.992188 288h56v16h-56zm0 0"/><path d="m391.992188 256h56v16h-56zm0 0"/><path d="m391.992188 224h24v16h-24zm0 0"/><path d="m431.992188 224h16v16h-16zm0 0"/><path d="m391.992188 144h56v16h-56zm0 0"/><path d="m391.992188 176h56v16h-56zm0 0"/></g><path d="m255.992188 400h-42.398438l-21.601562 72h88zm0 0" fill="#d45246"/><path d="m423.992188 53.664062v-45.664062c0-4.417969-3.578126-8-8-8h-256c-4.417969 0-8 3.582031-8 8v45.960938l-47.023438 86.207031c-.640625 1.175781-.976562 2.492187-.976562 3.832031v168h16v-165.960938l44.753906-82.039062h237.769531l-41.546875 76.167969c-.640625 1.175781-.976562 2.492187-.976562 3.832031v288h-64v16h144c22.082031-.027344 39.976562-17.917969 40-40v-264c-.003907-1.519531-.433594-3.007812-1.246094-4.296875zm-256-5.664062v-32h240v32zm296 360c0 13.253906-10.742188 24-24 24h-64v-285.960938l40.53125-74.304687 47.46875 74.59375zm0 0"/><path d="m115.289062 338.097656c-3.605468-1.386718-7.433593-2.097656-11.296874-2.097656-14.585938.015625-27.320313 9.878906-30.980469 24h-1.019531c-17.671876 0-32 14.328125-32 32h-8c-3.441407.003906-6.496094 2.207031-7.582032 5.472656l-24 72c-.8125 2.4375-.4023435 5.117188 1.097656 7.203125 1.503907 2.085938 3.914063 3.324219 6.484376 3.324219h272c2.570312 0 4.984374-1.238281 6.488281-3.324219 1.5-2.085937 1.910156-4.765625 1.097656-7.203125l-24-72c-1.085937-3.265625-4.140625-5.46875-7.585937-5.472656h-8c0-17.671875-14.324219-32-32-32h-1.015626c-3.660156-14.121094-16.394531-23.984375-30.984374-24-3.859376 0-7.6875.710938-11.292969 2.097656-5.285157-11.058594-16.453125-18.09375-28.707031-18.09375-12.253907 0-23.417969 7.035156-28.703126 18.09375zm134.9375 69.902344 18.664063 56h-249.792969l18.664063-56zm-90.402343-57.089844c.210937 3.070313 2.164062 5.742188 5.019531 6.882813s6.109375.542969 8.375-1.535157c4.648438-4.335937 11.429688-5.488281 17.25-2.9375 5.820312 2.554688 9.566406 8.324219 9.523438 14.679688 0 4.417969 3.582031 8 8 8h8c8.839843 0 16 7.164062 16 16h-176c0-8.835938 7.164062-16 16-16h8c4.421874 0 8-3.582031 8-8-.03125-6.347656 3.710937-12.109375 9.523437-14.664062 5.8125-2.550782 12.589844-1.402344 17.238281 2.921874 2.265625 2.078126 5.519532 2.675782 8.375 1.535157 2.855469-1.140625 4.804688-3.8125 5.015625-6.882813.53125-8.359375 7.46875-14.871094 15.847657-14.871094 8.378906 0 15.316406 6.511719 15.851562 14.871094zm0 0"/><path d="m199.992188 192h16v16h-16zm0 0"/><path d="m279.992188 192h16v16h-16zm0 0"/><path d="m319.785156 97.945312-34.773437 30.054688h-70.335938l-37.816406-30.246094c-3.183594-2.550781-7.773437-2.292968-10.65625.589844-9.398437 9.382812-14.53125 22.214844-14.191406 35.488281.339843 13.277344 6.117187 25.828125 15.980469 34.71875v87.449219c0 44.183594 35.820312 80 80 80 44.183593 0 80-35.816406 80-80v-86.480469c9.539062-8.828125 15.25-21.03125 15.921874-34.007812.8125-13.566407-3.886718-26.890625-13.023437-36.953125-2.929687-3.164063-7.84375-3.4375-11.105469-.613282zm-151.734375 36.496094c-.367187-6.769531 1.386719-13.480468 5.023438-19.203125l24.664062 19.738281-20.328125 20.320313c-5.550781-5.585937-8.878906-13-9.359375-20.855469zm79.941407 185.558594c-8.671876 0-16-5.496094-16-12s7.328124-12 16-12c8.671874 0 16 5.496094 16 12s-7.328126 12-16 12zm64-64c-.023438 23.011719-12.402344 44.234375-32.414063 55.59375.226563-1.1875.367187-2.386719.414063-3.59375-1.191407-16.523438-15.460938-29.011719-32-28-16.535157-1.011719-30.804688 11.476562-32 28 .050781 1.207031.191406 2.40625.417968 3.59375-20.015625-11.359375-32.390625-32.582031-32.417968-55.59375v-84.6875l27.3125-27.3125h73.378906l16 16h-12.691406c-22.089844 0-40 17.910156-40 40s17.910156 40 40 40h24zm0-32h-24c-13.253907 0-24-10.746094-24-24s10.746093-24 24-24h24zm7.035156-68.28125-19.289063-19.285156 23.945313-20.707032c3.164062 5.773438 4.640625 12.324219 4.253906 18.898438-.433594 7.851562-3.585938 15.308594-8.910156 21.09375zm0 0"/><path d="m439.992188 352h-40c-4.417969 0-8 3.582031-8 8v32c0 4.417969 3.582031 8 8 8h40c4.421874 0 8-3.582031 8-8v-32c0-4.417969-3.578126-8-8-8zm-8 32h-24v-16h24zm0 0"/><path d="m391.992188 320h40v16h-40zm0 0"/><path d="m391.992188 288h56v16h-56zm0 0"/><path d="m295.992188 400h48v16h-48zm0 0"/><path d="m295.992188 368h48v16h-48zm0 0"/><path d="m391.992188 256h56v16h-56zm0 0"/><path d="m391.992188 224h24v16h-24zm0 0"/><path d="m431.992188 224h16v16h-16zm0 0"/><path d="m391.992188 144h56v16h-56zm0 0"/><path d="m391.992188 176h56v16h-56zm0 0"/></svg>