<svg id="Capa_1" enable-background="new 0 0 512 512" height="512" viewBox="0 0 512 512" width="512" xmlns="http://www.w3.org/2000/svg"><g><g><g fill="#cbafea"><circle cx="450.697" cy="191.952" r="21.635"/><circle cx="471.396" cy="105.92" r="32.133"/><circle cx="36.071" cy="161.715" r="27.601"/></g><path d="m459.676 211.635c-2.73 1.25-5.77 1.95-8.98 1.95-11.95 0-21.64-9.68-21.64-21.63s9.69-21.64 21.64-21.64c3.21 0 6.25.7 8.98 1.95-7.47 3.41-12.66 10.95-12.66 19.69s5.19 16.27 12.66 19.68z" fill="#bc95e2"/><path d="m480.375 136.785c-2.85.83-5.86 1.27-8.98 1.27-17.75 0-32.13-14.39-32.13-32.13 0-17.75 14.38-32.14 32.13-32.14 3.12 0 6.13.44 8.98 1.27-13.38 3.89-23.16 16.24-23.16 30.87s9.781 26.97 23.16 30.86z" fill="#bc95e2"/><path d="m45.05 187.815c-2.81.97-5.84 1.5-8.98 1.5-15.24 0-27.6-12.35-27.6-27.6 0-15.24 12.36-27.6 27.6-27.6 3.14 0 6.17.53 8.98 1.5-10.84 3.72-18.62 14-18.62 26.1 0 12.11 7.78 22.38 18.62 26.1z" fill="#bc95e2"/><path d="m436.11 375.241-5.66 16.66-20.92 61.639c-10.34 30.47-38.93 50.96-71.099 50.96h-196.698c-32.17 0-60.769-20.49-71.109-50.96l-20.92-61.639-5.66-16.66 194.848-27.27z" fill="#f9f6f6"/><path d="m436.11 375.241-5.66 16.66h-380.746l-5.66-16.66 194.848-27.269z" fill="#dddaec"/><path d="m185.43 504.5h-43.7c-32.17 0-60.769-20.49-71.109-50.96l-26.57-78.299 194.838-27.27.34.05-108.069 27.22 14.77 78.299c5.74 30.47 21.63 50.96 39.5 50.96z" fill="#dddaec"/><path d="m240.08 348.132-.851-.11.19-.05z" fill="#dddaec"/><path d="m412.991 341.324c19.559 0 35.415-15.856 35.415-35.415 0-15.085-9.436-27.96-22.725-33.064 1.456-3.126 2.274-6.608 2.274-10.284 0-13.472-10.921-24.393-24.393-24.393-1.292 0-2.559.102-3.796.296-1.571-18.107-16.758-32.317-35.272-32.317-3.6 0-7.074.541-10.348 1.54h-224.955v1.142c-4.169-1.725-8.736-2.682-13.528-2.682-18.514 0-33.701 14.21-35.272 32.317-1.237-.193-2.505-.296-3.796-.296-13.472 0-24.393 10.921-24.393 24.393 0 3.675.818 7.158 2.274 10.284-13.289 5.104-22.725 17.978-22.725 33.064 0 19.559 15.856 35.415 35.415 35.415" fill="#cbafea"/><path d="m129.19 207.68h28.81c-13.56 4.14-23.66 16.19-24.92 30.78-1.23-.19-2.5-.29-3.79-.29-13.48 0-24.4 10.92-24.4 24.39 0 3.67.82 7.16 2.28 10.28-13.29 5.11-22.73 17.98-22.73 33.07 0 19.56 15.86 35.41 35.42 35.41h-52.69c-19.56 0-35.42-15.85-35.42-35.41 0-15.09 9.44-27.96 22.73-33.07-1.46-3.12-2.28-6.61-2.28-10.28 0-13.47 10.92-24.39 24.4-24.39 1.29 0 2.55.1 3.79.29 1.57-18.11 16.76-32.32 35.27-32.32 4.8 0 9.36.96 13.53 2.69z" fill="#bc95e2"/><g><path d="m178.68 207.68h3.2v1.15c-1.04-.43-2.11-.82-3.2-1.15z" fill="#bc95e2"/><circle cx="240.079" cy="259.563" fill="#da4a54" r="46.444"/><path d="m290.18 36.763h-100.203c-42.486 0-76.928 34.442-76.928 76.928v90.892c0 42.486 34.442 76.928 76.928 76.928h100.203c42.486 0 76.928-34.442 76.928-76.928v-90.892c0-42.486-34.442-76.928-76.928-76.928z" fill="#d09080"/><path d="m272.258 281.509h-82.279c-42.49 0-76.929-34.44-76.929-76.929v-90.889c0-42.48 34.44-76.929 76.929-76.929h82.279c-42.49 0-76.929 34.45-76.929 76.929v90.889c-.001 42.489 34.439 76.929 76.929 76.929z" fill="#c67d66"/><path d="m220.624 36.76h38.9v136.999h-38.9z" fill="#f9f6f6"/><path d="m272.253 36.76c-4.34 0-8.59.36-12.73 1.06-14.83 2.46-28.23 9.17-38.9 18.84v-19.9z" fill="#dddaec"/><path d="m240.079 173.768h-42.206c-22.971 0-41.593 18.622-41.593 41.593v44.202c0 23.141 18.759 41.9 41.9 41.9 23.141 0 41.9-18.759 41.9-41.9 0 23.141 18.759 41.9 41.9 41.9 23.141 0 41.9-18.759 41.9-41.9v-44.202c0-22.971-18.622-41.593-41.593-41.593z" fill="#f9f6f6"/><path d="m219.908 295.393c-6.34 3.85-13.78 6.07-21.73 6.07-23.14 0-41.9-18.76-41.9-41.9v-44.21c0-22.97 18.63-41.59 41.6-41.59h43.449c-22.97 0-41.59 18.62-41.59 41.59v44.21c.002 15.19 8.072 28.48 20.171 35.83z" fill="#dddaec"/><path d="m260.696 157.807h-41.235c-11.754 0-21.282 9.528-21.282 21.282 0 11.754 9.528 21.282 21.282 21.282h6.651v12.636c0 7.713 6.253 13.967 13.967 13.967 7.713 0 13.967-6.253 13.967-13.967v-12.636h6.651c11.754 0 21.282-9.528 21.282-21.282-.001-11.754-9.529-21.282-21.283-21.282z" fill="#30579d"/><path d="m246.538 225.389c-1.93 1.01-4.12 1.58-6.46 1.58-7.72 0-13.97-6.25-13.97-13.97v-12.63h-6.65c-5.88 0-11.2-2.38-15.05-6.23-3.85-3.86-6.23-9.18-6.23-15.05 0-11.76 9.52-21.29 21.28-21.29h19.58c-11.76 0-21.29 9.53-21.29 21.29 0 5.87 2.38 11.19 6.23 15.05 3.86 3.85 9.18 6.23 15.06 6.23v12.63c0 5.38 3.04 10.05 7.5 12.39z" fill="#26457d"/><path d="m120.807 16.364-50.325 50.325c-11.816 11.816-11.816 30.974 0 42.79l23.905 23.905c15.716 15.716 42.447 9.69 49.9-11.249l26.421-74.23c3.917-11.005 1.149-23.281-7.11-31.541-11.817-11.816-30.975-11.816-42.791 0z" fill="#f9f6f6"/><path d="m108.831 65.819c-11.82 11.81-11.82 30.97 0 42.79l23.9 23.9c.89.89 1.82 1.72 2.78 2.46-11.4 9.76-29.35 10.19-41.13-1.59l-23.9-23.9c-11.82-11.82-11.82-30.98 0-42.79l50.319-50.329c5.91-5.9 13.66-8.86 21.4-8.86 6.59 0 13.18 2.15 18.64 6.44-.58.48-1.14 1-1.69 1.55z" fill="#dddaec"/><path d="m359.35 16.364 50.325 50.325c11.816 11.816 11.816 30.974 0 42.79l-23.905 23.905c-15.716 15.716-42.447 9.69-49.9-11.249l-26.421-74.23c-3.917-11.005-1.149-23.281 7.11-31.541 11.817-11.816 30.975-11.816 42.791 0z" fill="#f9f6f6"/><path d="m379.779 138.054c-15.78 9.42-37.34 2.56-43.91-15.91l-26.42-74.239c-3.92-11-1.15-23.28 7.11-31.54 5.9-5.91 13.65-8.86 21.39-8.86 5.34 0 10.67 1.4 15.41 4.21-2.14 1.26-4.15 2.81-5.98 4.65-8.26 8.26-11.03 20.54-7.12 31.54l26.43 74.239c2.53 7.12 7.29 12.51 13.09 15.91z" fill="#dddaec"/></g><path d="m436.109 328.355h-392.061c-12.948 0-23.444 10.496-23.444 23.444 0 12.948 10.496 23.444 23.444 23.444h392.062c12.948 0 23.444-10.496 23.444-23.444-.001-12.947-10.497-23.444-23.445-23.444z" fill="#f9f6f6"/><path d="m107.943 368.379c4.24 4.24 10.1 6.86 16.58 6.86h-80.48c-6.48 0-12.34-2.62-16.58-6.86s-6.86-10.1-6.86-16.58c0-12.95 10.49-23.45 23.44-23.45h80.479c-12.95 0-23.45 10.5-23.45 23.45.001 6.48 2.631 12.34 6.871 16.58z" fill="#dddaec"/><g><g><path d="m302.986 325.768v9.174c0 6.591 5.157 12.246 11.747 12.366 6.714.123 12.195-5.283 12.195-11.969 0 6.612 5.36 11.971 11.971 11.971 6.612 0 11.971-5.36 11.971-11.971 0 6.686 5.481 12.092 12.195 11.969 6.59-.12 11.747-5.775 11.747-12.366v-9.174c0-10.141-8.221-18.362-18.362-18.362h-35.103c-10.14 0-18.361 8.221-18.361 18.362z" fill="#d09080"/><path d="m321.946 325.768v9.18c0 2.83.95 5.48 2.56 7.61-2.22 2.95-5.78 4.83-9.77 4.75-6.59-.12-11.75-5.77-11.75-12.36v-9.18c0-10.14 8.22-18.36 18.37-18.36h18.95c-10.14 0-18.36 8.22-18.36 18.36z" fill="#c67d66"/></g><g><path d="m105.343 325.768v9.174c0 6.591 5.157 12.246 11.747 12.366 6.714.123 12.195-5.283 12.195-11.969 0 6.612 5.36 11.971 11.971 11.971 6.612 0 11.971-5.36 11.971-11.971 0 6.686 5.481 12.092 12.195 11.969 6.59-.12 11.747-5.775 11.747-12.366v-9.174c0-10.141-8.221-18.362-18.362-18.362h-35.103c-10.14 0-18.361 8.221-18.361 18.362z" fill="#d09080"/><path d="m124.303 325.768v9.18c0 2.83.95 5.48 2.56 7.61-2.22 2.95-5.78 4.83-9.77 4.75-6.59-.12-11.75-5.77-11.75-12.36v-9.18c0-10.14 8.22-18.36 18.37-18.36h18.95c-10.14 0-18.36 8.22-18.36 18.36z" fill="#c67d66"/></g></g></g><g><path d="m179.557 157.956c6.67 0 12.097-8.708 12.097-19.412s-5.427-19.412-12.097-19.412-12.096 8.708-12.096 19.412 5.426 19.412 12.096 19.412z"/><path d="m300.601 157.956c6.67 0 12.096-8.708 12.096-19.412s-5.426-19.412-12.096-19.412-12.097 8.708-12.097 19.412 5.427 19.412 12.097 19.412z"/><path d="m451.449 324.922c2.905-5.874 4.461-12.38 4.461-19.012 0-15.223-8.247-29.305-21.1-36.946.426-2.088.64-4.227.64-6.404 0-16.749-12.979-30.524-29.408-31.794-3.938-15.366-16.008-27.246-31.429-30.934v-51.483c6.113-1.721 11.787-4.988 16.46-9.661l23.906-23.905c14.721-14.722 14.721-38.675 0-53.396l-50.326-50.325c-7.131-7.131-16.613-11.059-26.698-11.059s-19.567 3.927-26.698 11.059c-5.25 5.25-8.711 11.867-10.199 18.906-3.602-.464-7.237-.707-10.874-.707h-100.209c-3.637 0-7.272.242-10.874.707-1.487-7.042-4.949-13.662-10.201-18.914-7.14-7.129-16.622-11.054-26.7-11.054-10.071 0-19.55 3.925-26.693 11.057l-50.333 50.332c-14.708 14.72-14.708 38.672.003 53.396l23.909 23.899c4.724 4.725 10.417 7.935 16.458 9.631v51.515c-15.428 3.686-27.498 15.567-31.43 30.936-16.43 1.266-29.414 15.043-29.414 31.794 0 2.173.215 4.311.643 6.403-12.848 7.639-21.093 21.722-21.093 36.947 0 6.645 1.555 13.158 4.46 19.035-9.316 5.339-15.61 15.373-15.61 26.855 0 8.279 3.222 16.052 9.066 21.883 4.511 4.512 10.178 7.45 16.336 8.557l25.019 73.715c11.378 33.522 42.809 56.045 78.209 56.045h196.696c35.4 0 66.83-22.523 78.209-56.046l25.021-73.722c14.421-2.622 25.393-15.266 25.393-30.432 0-8.271-3.216-16.042-9.062-21.89-1.977-1.972-4.177-3.637-6.538-4.988zm-129.585-303.255c4.298-4.298 10.013-6.665 16.091-6.665s11.793 2.367 16.091 6.665l50.326 50.325c8.873 8.873 8.873 23.31.001 32.183l-23.906 23.905c-5.551 5.551-13.439 7.834-21.095 6.108-7.658-1.727-13.803-7.173-16.436-14.569l-26.421-74.23c-2.929-8.231-.83-17.543 5.349-23.722zm-20.936 23.428c.352 1.794.834 3.574 1.457 5.324l26.421 74.23c4.367 12.271 14.562 21.308 27.268 24.172 1.178.266 2.359.461 3.54.613v55.143c0 22.367-10.729 43-28.256 55.915.006-.311.023-.621.023-.933v-44.2c0-25.627-19.746-46.717-44.823-48.892-3.786-7.727-10.935-13.512-19.527-15.45v-106.757h23.153c3.6 0 7.195.285 10.744.835zm-53.348 214.465c0-4.142-3.358-7.5-7.5-7.5s-7.5 3.358-7.5 7.5c0 9.183-3.579 17.823-10.07 24.323-6.506 6.498-15.147 10.077-24.33 10.077-18.968 0-34.4-15.432-34.4-34.4v-44.2c0-16.383 11.618-30.099 27.046-33.354 1.439 14.229 13.284 25.431 27.786 25.853v5.149c0 11.837 9.63 21.467 21.467 21.467 11.836 0 21.466-9.63 21.466-21.467v-5.149c14.501-.422 26.347-11.623 27.786-25.852 15.431 3.257 27.049 16.972 27.049 33.353v44.2c0 9.183-3.578 17.824-10.069 24.323-6.507 6.498-15.147 10.077-24.33 10.077-18.969 0-34.401-15.432-34.401-34.4zm2.446 37.64c-3.222.848-6.557 1.307-9.951 1.307-3.382 0-6.707-.457-9.922-1.302 1.016-.865 2.01-1.762 2.964-2.716 2.681-2.684 5.015-5.621 6.981-8.758 2.706 4.316 6.063 8.183 9.928 11.469zm-30.565-131.894h1.162 38.907 1.166c7.6 0 13.782 6.183 13.782 13.782s-6.183 13.782-13.782 13.782h-6.651c-4.142 0-7.5 3.358-7.5 7.5v12.636c0 3.566-2.901 6.467-6.466 6.467-3.566 0-6.467-2.901-6.467-6.467v-12.636c0-4.142-3.358-7.5-7.5-7.5h-6.65c-7.6 0-13.783-6.183-13.783-13.782s6.183-13.782 13.782-13.782zm32.569-121.046v106.046h-23.907v-106.046zm-176.244 59.919c-8.867-8.874-8.867-23.314-.002-32.186l50.326-50.325c4.306-4.3 10.021-6.668 16.09-6.668 6.076 0 11.794 2.368 16.097 6.663 6.175 6.176 8.274 15.488 5.347 23.722l-21.39 60.1c-1.389 3.902.649 8.192 4.551 9.581 3.898 1.387 8.191-.648 9.581-4.551l21.391-60.103c.621-1.748 1.102-3.525 1.453-5.316 3.549-.551 7.145-.835 10.744-.835h23.149v106.758c-8.59 1.939-15.737 7.724-19.523 15.449-25.075 2.172-44.821 23.264-44.821 48.893v44.2c0 .312.018.619.024.93-17.527-12.914-28.258-33.547-28.258-55.912v-55.142c7.337-.919 14.469-3.981 20.375-9.229 3.097-2.751 3.377-7.491.626-10.588s-7.492-3.377-10.588-.626c-7.899 7.018-21.754 8.594-31.266-.918zm-36.536 201.731c0-11.474 7.198-21.95 17.912-26.069 1.939-.746 3.482-2.262 4.262-4.188.779-1.926.724-4.089-.152-5.973-1.042-2.243-1.571-4.638-1.571-7.119 0-9.313 7.577-16.89 16.89-16.89.886 0 1.783.069 2.665.204 2.049.313 4.139-.235 5.77-1.517 1.63-1.281 2.658-3.181 2.837-5.247.951-10.938 8.401-20.182 18.378-23.818 3.607 28.259 21.306 53.03 47.333 65.476 7.95 16.655 24.955 28.192 44.608 28.192 5.289 0 10.448-.84 15.338-2.432 8.078 4.576 17.181 6.979 26.556 6.979 9.393 0 18.505-2.408 26.582-6.993 4.828 1.579 9.976 2.445 15.324 2.445 13.185 0 25.59-5.136 34.937-14.47 4.056-4.061 7.317-8.703 9.71-13.735 26.018-12.458 43.704-37.237 47.298-65.501 10.07 3.575 17.398 12.715 18.373 23.86.181 2.067 1.21 3.967 2.843 5.247s3.72 1.827 5.773 1.511c.869-.134 1.759-.202 2.646-.202 9.313 0 16.891 7.577 16.891 16.89 0 2.495-.526 4.884-1.563 7.101-.882 1.885-.941 4.052-.163 5.982.777 1.93 2.322 3.451 4.265 4.198 10.72 4.122 17.922 14.598 17.922 26.069 0 5.322-1.554 10.509-4.387 14.96-.138-.002-.274-.01-.412-.01h-54.269c-2.3-11.921-12.807-20.955-25.389-20.955h-35.104c-12.583 0-23.089 9.034-25.389 20.955h-111.766c-2.3-11.921-12.807-20.955-25.389-20.955h-35.104c-12.583 0-23.089 9.034-25.389 20.955h-54.266c-.143 0-.284.009-.427.011-2.824-4.446-4.373-9.633-4.373-14.961zm328.064 19.858v9.174c0 2.595-2.008 4.824-4.385 4.867-1.208.023-2.357-.432-3.22-1.28s-1.339-1.981-1.339-3.191c0-4.142-3.357-7.5-7.5-7.5s-7.5 3.358-7.5 7.5c0 2.466-2.006 4.471-4.471 4.471-2.466 0-4.472-2.006-4.472-4.471 0-4.142-3.357-7.5-7.5-7.5s-7.5 3.358-7.5 7.5c0 1.21-.476 2.343-1.339 3.191-.862.847-2.012 1.303-3.22 1.28-2.376-.043-4.384-2.272-4.384-4.867v-9.174c0-5.99 4.873-10.862 10.862-10.862h35.104c5.991 0 10.864 4.872 10.864 10.862zm-197.643 0v9.174c0 2.595-2.008 4.824-4.384 4.867-1.204.025-2.356-.432-3.219-1.28-.864-.848-1.339-1.981-1.339-3.191 0-4.142-3.358-7.5-7.5-7.5s-7.5 3.358-7.5 7.5c0 2.466-2.006 4.471-4.471 4.471s-4.471-2.006-4.471-4.471c0-4.142-3.358-7.5-7.5-7.5s-7.5 3.358-7.5 7.5c0 1.21-.476 2.343-1.339 3.191-.863.847-2.03 1.303-3.22 1.28-2.376-.043-4.384-2.272-4.384-4.867v-9.174c0-5.99 4.873-10.862 10.862-10.862h35.104c5.988 0 10.861 4.872 10.861 10.862zm266.439 41.972h-46.57c-4.143 0-7.5 3.358-7.5 7.5s3.357 7.5 7.5 7.5h36.104l-23.214 68.393c-9.311 27.434-35.032 45.867-64.003 45.867h-196.697c-28.972 0-54.693-18.433-64.005-45.867l-23.213-68.393h305.028c4.143 0 7.5-3.358 7.5-7.5s-3.357-7.5-7.5-7.5h-315.49c-4.265 0-8.27-1.656-11.283-4.67-3.009-3.003-4.667-7.005-4.667-11.27 0-8.789 7.155-15.94 15.95-15.94h53.839c.474 10.342 8.83 18.76 19.064 18.947 4.527.075 8.834-1.366 12.342-4.115 3.303 2.579 7.457 4.118 11.962 4.118s8.66-1.539 11.963-4.118c3.506 2.749 7.809 4.191 12.341 4.115 10.234-.187 18.591-8.604 19.065-18.947h110.906c.474 10.342 8.831 18.76 19.065 18.947 4.473.078 8.833-1.365 12.341-4.115 3.303 2.579 7.457 4.118 11.963 4.118s8.659-1.539 11.962-4.118c3.507 2.749 7.817 4.191 12.341 4.115 10.235-.187 18.592-8.604 19.066-18.947h53.841c4.258 0 8.265 1.658 11.276 4.663 3.007 3.008 4.663 7.013 4.663 11.277 0 8.789-7.151 15.94-15.94 15.94z"/><path d="m450.697 162.817c-16.065 0-29.135 13.07-29.135 29.135s13.069 29.135 29.135 29.135 29.135-13.07 29.135-29.135-13.069-29.135-29.135-29.135zm0 43.27c-7.794 0-14.135-6.341-14.135-14.135s6.341-14.135 14.135-14.135 14.135 6.341 14.135 14.135-6.341 14.135-14.135 14.135z"/><path d="m471.396 66.286c-21.854 0-39.634 17.78-39.634 39.633s17.779 39.633 39.634 39.633c21.854 0 39.633-17.779 39.633-39.633s-17.779-39.633-39.633-39.633zm0 64.267c-13.583 0-24.634-11.05-24.634-24.633s11.051-24.633 24.634-24.633 24.633 11.051 24.633 24.633-11.05 24.633-24.633 24.633z"/><path d="m71.172 161.715c0-19.354-15.746-35.101-35.101-35.101s-35.1 15.747-35.1 35.101 15.746 35.101 35.101 35.101 35.1-15.746 35.1-35.101zm-55.201 0c0-11.083 9.017-20.101 20.101-20.101s20.101 9.017 20.101 20.101-9.017 20.101-20.101 20.101-20.101-9.017-20.101-20.101z"/></g></g></svg>