<svg id="Capa_1" enable-background="new 0 0 512 512" height="512" viewBox="0 0 512 512" width="512" xmlns="http://www.w3.org/2000/svg"><g><g><path d="m54.728 165.491 201.272-155.471 201.272 155.471v336.489h-402.544z" fill="#fff3a0"/><path d="m457.272 214.256v-48.765l-201.272-155.471-201.272 155.471v48.765l201.272-152.731z" fill="#ffea60"/><path d="m207.444 206.236c-1.788-11.746-11.931-20.746-24.177-20.746-13.507 0-24.457 10.95-24.457 24.457 0 7.44 3.327 14.1 8.569 18.586-5.242 4.486-8.569 11.145-8.569 18.586 0 13.507 10.95 24.457 24.457 24.457 12.246 0 22.389-9 24.177-20.746h97.112c1.788 11.746 11.931 20.746 24.177 20.746 13.507 0 24.457-10.95 24.457-24.457 0-7.44-3.327-14.1-8.569-18.586 5.242-4.486 8.569-11.145 8.569-18.586 0-13.507-10.95-24.457-24.457-24.457-12.246 0-22.389 9-24.177 20.746z" fill="#dfedff"/><path d="m338.494 501.98v-101.03c0-45.56-36.934-82.494-82.494-82.494-45.56 0-82.494 36.934-82.494 82.494v101.03z" fill="#a0c8ff"/></g><g><circle cx="256" cy="501.98" r="10"/><path d="m506.766 191.062-244.641-188.972c-3.609-2.787-8.642-2.787-12.25 0l-244.641 188.972c-4.379 3.383-5.187 9.675-1.804 14.055 3.383 4.378 9.674 5.187 14.055 1.804l27.225-21.03v316.089c0 5.534 4.486 10.02 10.02 10.02h156.358c5.534 0 10.02-4.486 10.02-10.02s-4.486-10.02-10.02-10.02h-27.562v-91.01c0-39.963 32.512-72.475 72.475-72.475s72.475 32.512 72.475 72.475v91.011h-27.562c-5.534 0-10.02 4.486-10.02 10.02s4.486 10.019 10.019 10.019h156.358c5.534 0 10.02-4.486 10.02-10.02v-316.089l27.225 21.03c1.824 1.409 3.979 2.09 6.118 2.09 2.998 0 5.963-1.34 7.937-3.895 3.382-4.379 2.574-10.671-1.805-14.054zm-59.514 300.899h-98.738v-91.011c0-51.012-41.501-92.514-92.514-92.514s-92.514 41.501-92.514 92.514v91.011h-98.738v-321.549l191.252-147.732 191.252 147.732z"/><path d="m357.768 228.532c3.519-5.49 5.441-11.921 5.441-18.586 0-19.01-15.466-34.477-34.477-34.477-13.868 0-26.228 8.48-31.613 20.747h-82.239c-5.385-12.267-17.744-20.747-31.613-20.747-19.01 0-34.477 15.466-34.477 34.477 0 6.664 1.923 13.095 5.441 18.586-3.519 5.49-5.441 11.921-5.441 18.586 0 19.01 15.466 34.477 34.477 34.477 13.868 0 26.227-8.48 31.613-20.747h82.241c5.385 12.267 17.744 20.747 31.613 20.747 19.01 0 34.477-15.466 34.477-34.477-.002-6.664-1.924-13.095-5.443-18.586zm-19.662 7.613c3.218 2.754 5.064 6.753 5.064 10.973 0 7.961-6.477 14.437-14.437 14.437-7.074 0-13.21-5.26-14.272-12.235-.745-4.895-4.954-8.512-9.906-8.512h-97.112c-4.952 0-9.16 3.617-9.906 8.512-1.062 6.975-7.197 12.235-14.272 12.235-7.961 0-14.437-6.477-14.437-14.437 0-4.22 1.845-8.219 5.064-10.972 2.225-1.904 3.506-4.685 3.506-7.613s-1.281-5.71-3.505-7.613c-3.218-2.754-5.064-6.753-5.064-10.973 0-7.961 6.477-14.437 14.437-14.437 7.074 0 13.21 5.26 14.272 12.235.745 4.895 4.954 8.512 9.906 8.512h97.112c4.952 0 9.16-3.616 9.906-8.512 1.062-6.975 7.197-12.235 14.272-12.235 7.961 0 14.437 6.477 14.437 14.437 0 4.22-1.845 8.219-5.064 10.972-2.225 1.904-3.506 4.685-3.506 7.613s1.281 5.71 3.505 7.613z"/><path d="m249.875 53.596-113.632 87.774c-4.379 3.383-5.187 9.675-1.804 14.055 3.383 4.379 9.673 5.187 14.055 1.804l107.506-83.043 107.506 83.043c1.824 1.409 3.979 2.091 6.118 2.091 2.998 0 5.963-1.34 7.937-3.895 3.383-4.38 2.575-10.672-1.804-14.055l-113.632-87.774c-3.608-2.787-8.642-2.787-12.25 0z"/><path d="m141.739 391.765h-56.481c-5.534 0-10.02 4.486-10.02 10.02s4.486 10.02 10.02 10.02h56.481c5.534 0 10.02-4.486 10.02-10.02s-4.486-10.02-10.02-10.02z"/><path d="m426.742 391.765h-56.481c-5.534 0-10.02 4.486-10.02 10.02s4.486 10.02 10.02 10.02h56.481c5.534 0 10.02-4.486 10.02-10.02s-4.486-10.02-10.02-10.02z"/><path d="m141.739 291.569h-56.481c-5.534 0-10.02 4.486-10.02 10.02s4.486 10.02 10.02 10.02h56.481c5.534 0 10.02-4.486 10.02-10.02s-4.486-10.02-10.02-10.02z"/><path d="m360.242 301.589c0 5.534 4.486 10.02 10.02 10.02h56.481c5.534 0 10.02-4.486 10.02-10.02s-4.486-10.02-10.02-10.02h-56.481c-5.534 0-10.02 4.486-10.02 10.02z"/><path d="m99.378 211.413h14.12c5.534 0 10.02-4.486 10.02-10.02s-4.486-10.02-10.02-10.02h-14.12c-5.534 0-10.02 4.486-10.02 10.02.001 5.534 4.486 10.02 10.02 10.02z"/><path d="m398.502 211.413h14.12c5.534 0 10.02-4.486 10.02-10.02s-4.486-10.02-10.02-10.02h-14.12c-5.534 0-10.02 4.486-10.02 10.02s4.486 10.02 10.02 10.02z"/></g></g></svg>