<svg id="Capa_1" enable-background="new 0 0 511.999 511.999" height="512" viewBox="0 0 511.999 511.999" width="512" xmlns="http://www.w3.org/2000/svg"><g><g><g><path d="m441.74 33.823v460.146c0 5.812-4.717 10.53-10.53 10.53h-333.369c-5.812 0-10.53-4.717-10.53-10.53v-460.146c0-5.812 4.717-10.53 10.53-10.53h333.369c5.812.001 10.53 4.718 10.53 10.53z" fill="#fcb44d"/><path d="m431.21 23.294h-36.675c5.823 0 10.53 4.717 10.53 10.53v56.818c0-5.823-4.707-10.53-10.53-10.53h-259.303c-5.823 0-10.53 4.707-10.53 10.53v245.688h-37.391v72.181c9.782 9.287 22.997 14.973 37.549 14.973h226.809c-.232 0-.453-.021-.684-.021 18.697-.171 35.148-9.737 44.857-24.208 5.825-8.683 9.224-1.343 9.224-1.343v96.058c0 5.812-4.707 10.53-10.53 10.53h36.675c5.812 0 10.53-4.717 10.53-10.53v-460.147c-.001-5.812-4.719-10.529-10.531-10.529z" fill="#fb9927"/></g><g><g><path d="m405.065 65.075v278.236c0 30.157-24.439 54.596-54.596 54.596h-225.767v-332.832c0-5.823 4.707-10.53 10.53-10.53h259.303c5.823 0 10.53 4.707 10.53 10.53z" fill="#eff5f6"/><g fill="#deecf0"><path d="m352.574 54.545v30.641c0 5.812-4.707 10.53-10.53 10.53h-155.038c-5.823 0-10.53-4.717-10.53-10.53v-30.641z"/><path d="m405.065 65.075v278.236c0 30.157-24.439 54.596-54.596 54.596h-32.926c30.157 0 54.607-24.439 54.607-54.596v-278.236c0-5.823-4.717-10.53-10.53-10.53h32.916c5.822 0 10.529 4.707 10.529 10.53z"/></g></g><g><path d="m124.863 397.911c-30.157 0-54.603-24.447-54.603-54.603v-22.02c0-5.815 4.714-10.53 10.53-10.53h205.742c5.815 0 10.53 4.714 10.53 10.53v22.02c0 30.157 24.447 54.603 54.603 54.603z" fill="#deecf0"/><path d="m351.669 397.907h-34.127c-30.157 0-54.607-24.439-54.607-54.596v-22.017c0-5.823-4.707-10.53-10.53-10.53h34.127c5.812 0 10.53 4.707 10.53 10.53v22.017c0 30.157 24.45 54.596 54.607 54.596z" fill="#cbe5e7"/></g></g><path d="m342.048 73.181h-155.045c-5.815 0-10.53-4.714-10.53-10.53v-44.621c0-5.815 4.714-10.53 10.53-10.53h155.046c5.815 0 10.53 4.714 10.53 10.53v44.622c-.001 5.815-4.715 10.529-10.531 10.529z" fill="#7da2b0"/><path d="m352.574 18.029v44.625c0 5.812-4.707 10.53-10.53 10.53h-28.662c5.823 0 10.53-4.717 10.53-10.53v-44.625c0-5.812-4.707-10.53-10.53-10.53h28.662c5.824 0 10.53 4.717 10.53 10.53z" fill="#688d97"/><g><path d="m284.666 186.966c-.782-4.886-3.23-9.556-7.347-13.096-8.124-6.986-20.388-6.943-28.468.093-4.352 3.79-6.815 8.854-7.388 14.086-.661 6.036-3.557 11.521-8.107 15.543-4.926 4.355-7.868 10.901-7.296 18.114.845 10.654 9.523 19.236 20.185 19.974 3.35.232 6.552-.294 9.453-1.423 5.688-2.214 11.97-2.213 17.659.001 2.895 1.126 6.089 1.652 9.432 1.423 10.578-.723 19.236-9.177 20.184-19.738.719-8.003-2.89-15.211-8.75-19.552-5.063-3.747-8.562-9.206-9.557-15.425z" fill="#5bbd93"/><g fill="#2db181"><path d="m302.976 221.943c-.955 10.56-9.605 19.016-20.185 19.737-3.341.234-6.537-.292-9.44-1.422-.078-.029-.166-.058-.244-.088 3.488-3.507 5.806-8.173 6.274-13.356.721-7.998-2.884-15.207-8.748-19.551-5.066-3.751-8.563-9.206-9.557-15.431-.779-4.881-3.234-9.557-7.345-13.093-1.841-1.578-3.897-2.806-6.059-3.663.37-.38.77-.75 1.179-1.111 8.076-7.043 20.34-7.082 28.465-.097 4.121 3.536 6.566 8.212 7.345 13.093 1.003 6.225 4.501 11.68 9.557 15.431 5.864 4.345 9.469 11.554 8.758 19.551z"/><g><circle cx="236.853" cy="136.062" r="15.57"/><circle cx="292.198" cy="136.062" r="15.57"/></g><g><circle cx="197.887" cy="173.529" r="15.57"/><circle cx="331.164" cy="173.529" r="15.57"/></g></g></g></g><g><path d="m441.739 413.955c4.142 0 7.5-3.358 7.5-7.5v-372.632c0-9.942-8.088-18.03-18.03-18.03h-71.285c-1.107-8.888-8.693-15.793-17.876-15.793h-33.333c-4.142 0-7.5 3.358-7.5 7.5s3.358 7.5 7.5 7.5h33.333c1.67 0 3.03 1.359 3.03 3.03v44.622c0 1.67-1.359 3.03-3.03 3.03h-155.045c-1.67 0-3.03-1.359-3.03-3.03v-44.622c0-1.67 1.359-3.03 3.03-3.03h85.786c4.142 0 7.5-3.358 7.5-7.5s-3.358-7.5-7.5-7.5h-85.786c-9.183 0-16.769 6.905-17.876 15.793h-71.285c-9.941 0-18.03 8.088-18.03 18.03v269.485c-9.486.512-17.052 8.368-17.052 17.98v22.02c0 16.52 6.496 31.541 17.052 42.678v107.983c0 9.942 8.088 18.03 18.03 18.03h333.368c9.942 0 18.03-8.088 18.03-18.03v-51.588c0-4.142-3.358-7.5-7.5-7.5s-7.5 3.358-7.5 7.5v51.588c0 1.671-1.359 3.03-3.03 3.03h-333.368c-1.671 0-3.03-1.359-3.03-3.03v-96.337c8.911 4.949 19.155 7.779 30.051 7.779h226.801c.272 0 .54-.016.805-.044 16.06-.509 31.081-7.09 42.355-18.595 11.442-11.677 17.744-27.113 17.744-43.464v-278.235c0-9.942-8.088-18.03-18.029-18.03h-34.46v-16.25h71.131c1.67 0 3.03 1.359 3.03 3.03v372.631c-.001 4.143 3.357 7.501 7.499 7.501zm-316.876-23.543c-25.973 0-47.103-21.13-47.103-47.104v-22.02c0-1.67 1.359-3.029 3.029-3.029h205.742c1.67 0 3.03 1.359 3.03 3.029v22.02c0 18.817 8.411 35.705 21.672 47.104zm269.675-328.369c1.67 0 3.029 1.359 3.029 3.03v278.235c0 25.419-20.665 46.545-46.065 47.092-.025.001-.049.004-.073.005-19.297-.095-35.885-11.851-43.066-28.571h22.801c4.142 0 7.5-3.358 7.5-7.5s-3.358-7.5-7.5-7.5h-26.458c-.087-1.166-.146-2.339-.146-3.527v-8.447h26.604c4.142 0 7.5-3.358 7.5-7.5s-3.358-7.5-7.5-7.5h-26.676c-.732-9.275-8.497-16.602-17.957-16.602h-154.333v-50.085c0-4.142-3.358-7.5-7.5-7.5s-7.5 3.358-7.5 7.5v50.085h-22.386v-269.435c0-1.67 1.359-3.03 3.03-3.03h71.131v16.25h-33.745c-9.942 0-18.03 8.088-18.03 18.03v152.174c0 4.142 3.358 7.5 7.5 7.5s7.5-3.358 7.5-7.5v-152.174c0-1.67 1.359-3.03 3.03-3.03h33.745v.608c0 9.942 8.088 18.03 18.03 18.03h155.045c9.942 0 18.03-8.088 18.03-18.03v-.608z"/><path d="m234.007 187.232c-.452 4.123-2.447 7.938-5.619 10.741-6.968 6.16-10.542 15.027-9.805 24.326 1.136 14.322 12.805 25.871 27.144 26.864.701.049 1.399.073 2.094.073 3.644 0 7.2-.666 10.597-1.988 3.939-1.532 8.278-1.532 12.219 0 4.036 1.571 8.293 2.218 12.664 1.917 14.202-.971 25.871-12.385 27.142-26.549.925-10.299-3.47-20.112-11.756-26.25-3.599-2.665-5.948-6.424-6.614-10.585-1.091-6.817-4.594-13.066-9.863-17.598-10.94-9.407-27.399-9.354-38.284.125-5.594 4.87-9.116 11.591-9.919 18.924zm19.769-7.613c2.665-2.32 6.015-3.482 9.365-3.482 3.318 0 6.636 1.139 9.288 3.419 2.622 2.254 4.292 5.227 4.832 8.595 1.29 8.057 5.728 15.255 12.498 20.268 4.05 3 6.197 7.805 5.744 12.854-.62 6.896-6.305 12.453-13.226 12.926-2.149.146-4.236-.167-6.201-.931-7.449-2.898-15.652-2.898-23.098 0-1.969.767-4.062 1.078-6.214.93-6.987-.484-12.673-6.109-13.227-13.085-.361-4.556 1.384-8.894 4.787-11.902 5.973-5.28 9.736-12.505 10.595-20.345.39-3.575 2.116-6.86 4.857-9.247z"/><path d="m236.853 159.132c12.721 0 23.07-10.349 23.07-23.07s-10.349-23.07-23.07-23.07-23.07 10.349-23.07 23.07 10.349 23.07 23.07 23.07zm0-31.14c4.45 0 8.07 3.62 8.07 8.07s-3.62 8.07-8.07 8.07-8.07-3.62-8.07-8.07 3.62-8.07 8.07-8.07z"/><path d="m292.198 159.132c12.721 0 23.07-10.349 23.07-23.07s-10.349-23.07-23.07-23.07-23.07 10.349-23.07 23.07 10.349 23.07 23.07 23.07zm0-31.14c4.45 0 8.07 3.62 8.07 8.07s-3.62 8.07-8.07 8.07-8.07-3.62-8.07-8.07 3.62-8.07 8.07-8.07z"/><path d="m197.886 196.599c12.721 0 23.07-10.349 23.07-23.07s-10.349-23.07-23.07-23.07-23.07 10.349-23.07 23.07c.001 12.721 10.35 23.07 23.07 23.07zm0-31.141c4.45 0 8.07 3.62 8.07 8.07s-3.62 8.07-8.07 8.07-8.07-3.62-8.07-8.07c.001-4.449 3.621-8.07 8.07-8.07z"/><path d="m308.094 173.528c0 12.721 10.349 23.07 23.07 23.07s23.07-10.349 23.07-23.07-10.349-23.07-23.07-23.07c-12.72 0-23.07 10.35-23.07 23.07zm23.07-8.07c4.45 0 8.07 3.62 8.07 8.07s-3.62 8.07-8.07 8.07-8.07-3.62-8.07-8.07c0-4.449 3.621-8.07 8.07-8.07z"/><path d="m348.636 104.296c0 4.142 3.358 7.5 7.5 7.5h16.01c4.142 0 7.5-3.358 7.5-7.5s-3.358-7.5-7.5-7.5h-16.01c-4.142 0-7.5 3.358-7.5 7.5z"/><path d="m205.06 32.84c-.012 0-.023 0-.034 0-4.126 0-7.481 3.336-7.5 7.466-.019 4.142 3.324 7.515 7.466 7.534h.109.035c4.126 0 7.48-3.336 7.499-7.466.019-4.142-3.324-7.515-7.466-7.534z"/><path d="m323.99 47.841h.035c4.126 0 7.48-3.336 7.499-7.466.019-4.142-3.324-7.515-7.466-7.534h-.109c-.012 0-.023 0-.034 0-4.126 0-7.481 3.336-7.5 7.466-.019 4.142 3.324 7.515 7.466 7.534z"/><path d="m369.477 266.926h-209.903c-4.142 0-7.5 3.358-7.5 7.5s3.358 7.5 7.5 7.5h209.903c4.142 0 7.5-3.358 7.5-7.5s-3.358-7.5-7.5-7.5z"/><path d="m128.454 463.509c-4.142 0-7.5 3.358-7.5 7.5s3.358 7.5 7.5 7.5h15.767c4.142 0 7.5-3.358 7.5-7.5s-3.358-7.5-7.5-7.5z"/><path d="m205.386 442.921c0-4.142-3.358-7.5-7.5-7.5h-69.433c-4.142 0-7.5 3.358-7.5 7.5s3.358 7.5 7.5 7.5h69.433c4.143 0 7.5-3.358 7.5-7.5z"/></g></g></svg>