<svg height="512" viewBox="0 0 512 512" width="512" xmlns="http://www.w3.org/2000/svg"><g id="Filled_outline" data-name="Filled outline"><path d="m352 496v-144h24l32-48-16-64-48-32h-176l-48 32-16 64 32 48h24v144" fill="#f88400"/><path d="m344 208a169.443 169.443 0 0 0 -75.777 17.889l-12.223 6.111-12.223-6.111a169.443 169.443 0 0 0 -75.777-17.889v-128h176z" fill="#2b4266"/><path d="m112 80 144-56 144 56-144 56z" fill="#34507b"/><path d="m256 96a16 16 0 1 1 16-16 16.019 16.019 0 0 1 -16 16z" fill="#415e89"/><g fill="#7a432a"><path d="m202.085 303.867a16 16 0 1 1 13.782-13.782 16.02 16.02 0 0 1 -13.782 13.782z"/><path d="m314.085 303.867a16 16 0 1 1 13.782-13.782 16.02 16.02 0 0 1 -13.782 13.782z"/><rect height="32" rx="16" width="48" x="232" y="320"/></g><path d="m160 456h192v40h-192z" fill="#d65246"/><path d="m399.761 238.06a8 8 0 0 0 -3.323-4.716l-44.438-29.625v-96.469l40-15.55v100.3h16v-112a8.074 8.074 0 0 0 -.083-1.095c-.012-.081-.024-.162-.038-.243a7.924 7.924 0 0 0 -.641-2.054c-.03-.063-.06-.127-.092-.19a7.966 7.966 0 0 0 -.536-.922c-.013-.019-.027-.036-.04-.055a7.949 7.949 0 0 0 -.619-.774c-.054-.06-.107-.121-.163-.18a8.324 8.324 0 0 0 -.76-.706c-.042-.033-.087-.063-.129-.1a8.174 8.174 0 0 0 -.8-.544c-.054-.032-.1-.066-.159-.1a7.951 7.951 0 0 0 -.989-.474c-.019-.007-.036-.019-.055-.026l-144-56a8 8 0 0 0 -5.8 0l-72 28 5.8 14.912 69.104-26.865 101.356 39.416h-87.521a16 16 0 1 0 0 16h87.521l-101.356 39.416-121.928-47.416 36.828-14.321-5.8-14.912-56 21.777a8 8 0 0 0 0 14.912l50.9 19.794v100.75a8 8 0 0 0 8 8 162.214 162.214 0 0 1 72.2 17.045l12.22 6.11a8 8 0 0 0 7.156 0l12.221-6.11a162.229 162.229 0 0 1 69.831-17.01l43.359 28.905 14.391 57.567-27.659 41.493h-11.719v-59.155a61.775 61.775 0 0 0 -27.562-51.5l-8.876 13.312a45.8 45.8 0 0 1 20.438 38.188v139.155h16v-64h16a8 8 0 0 0 6.656-3.562l32-48a8 8 0 0 0 1.105-6.378zm-135.118-19.326-8.643 4.322-8.642-4.322a178.391 178.391 0 0 0 -71.358-18.55v-86.712l77.1 29.984a8 8 0 0 0 5.8 0l77.1-29.984v86.712a178.382 178.382 0 0 0 -71.357 18.55z"/><circle cx="200" cy="288" r="16"/><circle cx="312" cy="288" r="16"/><path d="m224 400h-4.223a23.868 23.868 0 0 1 -21.466-13.268l-7.156-14.31-14.31 7.156 7.155 14.311a39.782 39.782 0 0 0 35.777 22.111h4.223a39.965 39.965 0 0 0 32-16.025 39.965 39.965 0 0 0 32 16.025h8.936a39.948 39.948 0 0 0 37.947-27.351l.706-2.119-15.178-5.06-.707 2.12a23.97 23.97 0 0 1 -22.768 16.41h-8.936a24.027 24.027 0 0 1 -24-24v-16a24 24 0 0 0 0-48h-16a24 24 0 0 0 0 48v16a24.027 24.027 0 0 1 -24 24zm16-64a8.009 8.009 0 0 1 8-8h16a8 8 0 0 1 0 16h-16a8.009 8.009 0 0 1 -8-8z"/><path d="m192 136h16v48h-16z"/><path d="m480 152h16v16h-16z"/><path d="m424 152h40v16h-40z"/><path d="m478.385 61.334h19.23v16h-19.23z" transform="matrix(.832 -.555 .555 .832 43.5 282.338)"/><path d="m419.963 90.667h48.074v16h-48.074z" transform="matrix(.832 -.555 .555 .832 19.839 262.858)"/><path d="m480 241.052h16v19.23h-16z" transform="matrix(.555 -.832 .832 .555 8.735 517.656)"/><path d="m436 197.296h16v48.074h-16z" transform="matrix(.555 -.832 .832 .555 13.551 467.988)"/><path d="m16 152h16v16h-16z"/><path d="m48 152h40v16h-40z"/><path d="m16 59.719h16v19.23h-16z" transform="matrix(.555 -.832 .832 .555 -47.002 50.842)"/><path d="m60 74.629h16v48.074h-16z" transform="matrix(.555 -.832 .832 .555 -51.815 100.515)"/><path d="m14.385 242.667h19.23v16h-19.23z" transform="matrix(.832 -.555 .555 .832 -135.014 55.412)"/><path d="m43.963 213.334h48.074v16h-48.074z" transform="matrix(.832 -.555 .555 .832 -111.353 74.893)"/><path d="m352 440h-184v-155.155a45.8 45.8 0 0 1 20.438-38.189l-8.876-13.312a61.775 61.775 0 0 0 -27.562 51.501v59.155h-11.719l-27.661-41.493 14.391-57.567 21.427-14.284-8.876-13.312-24 16a8 8 0 0 0 -3.323 4.716l-16 64a8 8 0 0 0 1.1 6.378l32 48a8 8 0 0 0 6.661 3.562h16v128a8 8 0 0 0 8 8h192a8 8 0 0 0 8-8v-40a8 8 0 0 0 -8-8zm-8 40h-176v-24h176z"/></g></svg>