<svg id="_x33_0" enable-background="new 0 0 64 64" height="512" viewBox="0 0 64 64" width="512" xmlns="http://www.w3.org/2000/svg"><g><g><g><path d="m17 24h-2.82-6.18v6h9 11v-6z" fill="#dfb28b"/></g><g><path d="m28 8v10h-1.97c-1.98 0-3.91.58-5.55 1.68l-.48.32v-3c0-1.66-1.34-3-3-3h-5c0-.55-.22-1.05-.59-1.41-.36-.37-.86-.59-1.41-.59-1.1 0-2 .9-2 2v-6z" fill="#e6e9ed"/></g><g><path d="m28 34v15c-1.25-1.87-3.35-3-5.61-3h-.76-.16-1.47l.58-.29c2.1-1.05 3.42-3.19 3.42-5.53 0-1.7-.69-3.25-1.81-4.37s-2.67-1.81-4.37-1.81z" fill="#e6e9ed"/></g><g><path d="m20 46h1.47c-.9 0-1.72.51-2.13 1.31l-2.34 4.69h-3c-.55 0-1.05.22-1.41.59-.33.32-.54.75-.58 1.23l-4.01-8.82v-11h6c-1.1 0-2 .9-2 2 0 .55.22 1.05.59 1.41.36.37.86.59 1.41.59v5c0 1.66 1.34 3 3 3z" fill="#e6e9ed"/></g><g><path d="m44 30v4h-4-8-4-10.18-3.82-6v-4h9 11 6 6z" fill="#d3a06c"/></g><g><path d="m44 56v6h-36v-6h6 4.84 9.16v2c2.13 0 2.56-1.27 4-1.79.36-.13.79-.21 1.33-.21 1.33 0 2 .5 2.67 1s1.34 1 2.67 1c2.66 0 2.66-2 5.33-2z" fill="#dfb28b"/></g><g><path d="m8 56v6h-4v-54h4v6 10 6 4 11z" fill="#d3a06c"/></g><g><path d="m56 8h4v22h-4z" fill="#d3a06c"/></g><g><path d="m62 3v4c0 .55-.45 1-1 1h-1-4-10-6-6-6-20-4-1c-.55 0-1-.45-1-1v-4c0-.55.45-1 1-1h58c.55 0 1 .45 1 1z" fill="#b27946"/></g><g><path d="m48 54h8v4h-8z" fill="#b27946"/></g><g><path d="m48 46h8v4h-8z" fill="#b27946"/></g><g><path d="m48 38h8v4h-8z" fill="#b27946"/></g><g><path d="m48 30h8v4h-8z" fill="#b27946"/></g><g><path d="m60 30v32h-4v-4-4-4-4-4-4-4-4z" fill="#ccd1d9"/></g><g><path d="m48 58h8v4h-8z" fill="#d3a06c"/></g><g><path d="m48 50h8v4h-8z" fill="#d3a06c"/></g><g><path d="m48 42h8v4h-8z" fill="#d3a06c"/></g><g><path d="m48 34h8v4h-8z" fill="#d3a06c"/></g><g><path d="m48 58v4h-4v-6-22-4h4v4 4 4 4 4 4z" fill="#ccd1d9"/></g><g><path d="m40 34h4v22c-2.67 0-2.67 2-5.33 2-1.33 0-2-.5-2.67-1s-1.34-1-2.67-1c-.54 0-.97.08-1.33.21-1.44.52-1.87 1.79-4 1.79v-2-7-15h4z" fill="#5cd6b3"/></g><g><path d="m46 8h-6-6-6v10 6 6h6 6 4 4 8v-22z" fill="#5cd6b3"/></g><g><path d="m28 49v7h-9.16c.72 0 1.38-.38 1.74-1.01l.72-1.27 2.39-4.17c.2-.36.31-.77.31-1.18 0-1.31-1.06-2.37-2.37-2.37h.76c2.26 0 4.36 1.13 5.61 3z" fill="#fcd770"/></g><g><path d="m28 18v6h-11-2.82c2.34 0 4.48-1.32 5.53-3.42l.29-.58.48-.32c1.64-1.1 3.57-1.68 5.55-1.68z" fill="#ff826e"/></g><g><path d="m24 48.37c0 .41-.11.82-.31 1.18l-2.39 4.17-4.3-1.72 2.34-4.69c.41-.8 1.23-1.31 2.13-1.31h.16c1.31 0 2.37 1.06 2.37 2.37z" fill="#fcd770"/></g><g><path d="m24 40.18c0 2.34-1.32 4.48-3.42 5.53l-.58.29v-5c0-1.66-1.34-3-3-3h-3c-.55 0-1.05-.22-1.41-.59-.37-.36-.59-.86-.59-1.41 0-1.1.9-2 2-2h3.82c1.7 0 3.25.69 4.37 1.81s1.81 2.67 1.81 4.37z" fill="#656d78"/></g><g><path d="m21.3 53.72-.72 1.27c-.36.63-1.02 1.01-1.74 1.01h-4.84c-1.1 0-2-.9-2-2 0-.06 0-.12.01-.18.04-.48.25-.91.58-1.23.36-.37.86-.59 1.41-.59h3z" fill="#f0d0b4"/></g><g><path d="m20 41v5h-3c-1.66 0-3-1.34-3-3v-5h3c1.66 0 3 1.34 3 3z" fill="#f0d0b4"/></g><g><path d="m20 17v3h-5c-1.66 0-3-1.34-3-3v-3h5c1.66 0 3 1.34 3 3z" fill="#f0d0b4"/></g><g><path d="m20 20-.29.58c-1.05 2.1-3.19 3.42-5.53 3.42h-6.18v-10c0-1.1.9-2 2-2 .55 0 1.05.22 1.41.59.37.36.59.86.59 1.41v3c0 1.66 1.34 3 3 3z" fill="#656d78"/></g><g><path d="m14 56h-6v-11l4.01 8.82c-.01.06-.01.12-.01.18 0 1.1.9 2 2 2z" fill="#ccd1d9"/></g></g><g><path d="m61 1h-58c-1.103 0-2 .897-2 2v4c0 1.103.897 2 2 2v54h58v-54c1.103 0 2-.897 2-2v-4c0-1.103-.897-2-2-2zm-56 8h2v52h-2zm30 10v-10h10v12h2v-12h8v20h-14v-18h-2v18h-4v-6h-2v6h-4v-20h4v10zm-20 2h3.256c-.969 1.248-2.451 2-4.076 2h-5.18v-9c0-.551.449-1 1-1s1 .449 1 1v3c0 2.206 1.794 4 4 4zm2-6c1.103 0 2 .897 2 2v2h-4c-1.103 0-2-.897-2-2v-2zm26 16v2h-34v-2zm0 24.094c-1.049.2-1.713.69-2.268 1.106-.619.464-1.067.8-2.067.8-.774 0-1.218-.203-1.666-.509v-13.491h-2v12.274c-.457-.164-.997-.274-1.668-.274-.117 0-.222.01-.331.017v-6.017h-2v6.572c-.36.199-.661.423-.935.629-.365.273-.67.503-1.065.644v-21.845h2v10h2v-10h6v12h2v-12h2zm-34-30.094h7v4h-7zm14 15.18c0 1.625-.752 3.107-2 4.076v-3.256c0-2.206-1.794-4-4-4h-3c-.551 0-1-.449-1-1s.449-1 1-1h3.82c2.856 0 5.18 2.324 5.18 5.18zm-2.134 12.289-2.485-.994 1.859-3.717c.233-.467.703-.758 1.225-.758h.165c.755 0 1.37.615 1.37 1.371 0 .238-.063.473-.181.68zm-5.866-13.469h2c1.103 0 2 .897 2 2v4h-2c-1.103 0-2-.897-2-2zm-2-.184v4.184c0 2.206 1.794 4 4 4h1.382l-2 4h-2.382c-.71 0-1.355.258-1.869.672l-3.131-6.888v-9.784h2.184c-.112.314-.184.648-.184 1 0 1.302.839 2.402 2 2.816zm-4 10.8 2.002 4.405c.002.345.072.671.182.979h-2.184zm4 4.384c0-.551.449-1 1-1h2.807l3.057 1.223-.156.273c-.178.311-.511.504-.869.504h-4.839c-.551 0-1-.449-1-1zm11.555-3.957c.291-.507.445-1.086.445-1.672 0-.272-.041-.533-.102-.787.823.4 1.544.995 2.102 1.75v5.666h-5.277zm2.445-3.513c-1.132-.841-2.48-1.359-3.912-1.487 1.205-1.301 1.912-3.014 1.912-4.863 0-2.036-.856-3.872-2.221-5.18h4.221zm-9-17.53v-4h9v4zm9-6h-7.865c.584-.561 1.09-1.214 1.467-1.969l.173-.346.26-.173c1.484-.989 3.21-1.512 4.993-1.512h.972zm-18 34h5 4.839 8.161v2h1c1.666 0 2.553-.666 3.266-1.2.619-.464 1.066-.8 2.065-.8 1 0 1.448.335 2.067.8.713.535 1.601 1.2 3.268 1.2s2.554-.666 3.267-1.2c.362-.272.677-.489 1.067-.631v3.831h-34zm36-26h2v30h-2zm10 26h-6v-2h6zm0-4h-6v-2h6zm0-4h-6v-2h6zm0-4h-6v-2h6zm0-4h-6v-2h6zm0-4h-6v-2h6zm-6 22h6v2h-6zm6-26h-6v-2h6zm-28-16h-.972c-1.761 0-3.478.417-5.028 1.216v-1.216c0-2.206-1.794-4-4-4h-4.184c-.414-1.161-1.514-2-2.816-2-.352 0-.686.072-1 .184v-2.184h18zm30 44v-30h2v30zm2-32h-2v-20h2zm-56-22v-4h58l.001 4z"/><path d="m39 51h2v2h-2z"/><path d="m35 39h2v2h-2z"/><path d="m45 23h2v2h-2z"/><path d="m51 13h2v14h-2z"/></g></g></svg>