<svg id="Layer_3" height="512" viewBox="0 0 64 64" width="512" xmlns="http://www.w3.org/2000/svg" data-name="Layer 3"><path d="m4 30h56v28h-56z" fill="#d6a67f"/><path d="m30 34h26v16h-26z" fill="#f2f2f2"/><path d="m50 42 3-8h-4l-3 8z" fill="#3b5892"/><path d="m34 34h4v8h-4z" fill="#3b5892"/><path d="m38 34h4v8h-4z" fill="#f0ae42"/><path d="m30 42h26v4h-26z" fill="#976947"/><path d="m62 26-5-10h-50l-5 10z" fill="#7f563b"/><path d="m27 18v-16h12a2 2 0 0 1 2 2v14z" fill="#f0ae42"/><path d="m27 2v16h-2a2 2 0 0 0 -2 2v-15a3 3 0 0 1 3-3z" fill="#d5883e"/><path d="m2 26h60a0 0 0 0 1 0 0v2a2 2 0 0 1 -2 2h-56a2 2 0 0 1 -2-2v-2a0 0 0 0 1 0 0z" fill="#976947"/><path d="m25 18h16a0 0 0 0 1 0 0v4a0 0 0 0 1 0 0h-16a2 2 0 0 1 -2-2 2 2 0 0 1 2-2z" fill="#fbe1ca"/><path d="m31 6h6v6h-6z" fill="#f9d266"/><path d="m2 58h60v4h-60z" fill="#674025"/><path d="m8 58v-12a8 8 0 0 1 8-8 8 8 0 0 1 8 8v12" fill="#976947"/><path d="m9 30v4h14v-4" fill="#674025"/><path d="m16 38a8.047 8.047 0 0 0 -1 .069v19.931h2v-19.931a8.047 8.047 0 0 0 -1-.069z" fill="#774e32"/><path d="m63 28v-2a.978.978 0 0 0 -.115-.443h.01l-5-10a1 1 0 0 0 -.895-.557h-15v-11a3 3 0 0 0 -3-3h-13a4 4 0 0 0 -4 4v10h-15a1 1 0 0 0 -.895.553l-5 10h.01a.978.978 0 0 0 -.115.447v2a3 3 0 0 0 2 2.816v26.184h-1a1 1 0 0 0 -1 1v4a1 1 0 0 0 1 1h60a1 1 0 0 0 1-1v-4a1 1 0 0 0 -1-1h-1v-26.184a3 3 0 0 0 2-2.816zm-2 0a1 1 0 0 1 -1 1h-56a1 1 0 0 1 -1-1v-1h58zm-51 3h12v2h-12zm30-27v13h-12v-14h11a1 1 0 0 1 1 1zm0 15v2h-15a1 1 0 0 1 0-2zm-14-16v14h-1a2.966 2.966 0 0 0 -1 .184v-12.184a2 2 0 0 1 2-2zm-18.382 14h14.382v3a3 3 0 0 0 3 3h16a1 1 0 0 0 1-1v-5h14.382l4 8h-56.764zm53.382 44h-58v-2h58zm-38-4h-6v-17.92a7.006 7.006 0 0 1 6 6.92zm-8 0h-6v-11a7.006 7.006 0 0 1 6-6.92zm10 0v-11a9 9 0 0 0 -18 0v11h-2v-26h3v3a1 1 0 0 0 1 1h14a1 1 0 0 0 1-1v-3h35v26z"/><path d="m31 13h6a1 1 0 0 0 1-1v-6a1 1 0 0 0 -1-1h-6a1 1 0 0 0 -1 1v6a1 1 0 0 0 1 1zm1-6h4v4h-4z"/><path d="m56 33h-26a1 1 0 0 0 -1 1v16a1 1 0 0 0 1 1h26a1 1 0 0 0 1-1v-16a1 1 0 0 0 -1-1zm-1 8h-3.557l2.25-6h1.307zm-7.557 0 2.25-6h1.864l-2.25 6zm-2.136 0h-2.307v-6h4.557zm-4.307 0h-2v-6h2zm-4 0h-2v-6h2zm18 2v2h-24v-2zm-22-8v6h-2v-6zm-2 14v-2h24v2z"/></svg>