<svg id="filled_outline" height="512" viewBox="0 0 512 512" width="512" xmlns="http://www.w3.org/2000/svg" data-name="filled outline"><path d="m112 24h288v184h-288z" fill="#548aff"/><path d="m224 208h64v56h-64z" fill="#e0edff"/><path d="m452 264a36 36 0 0 0 36-36 36 36 0 0 0 -36-36h-3.05578a37.88851 37.88851 0 0 0 -16.94422 4 37.88858 37.88858 0 0 1 -16.94423 4h-43.05577l-55.94437 44.75549a10.80627 10.80627 0 0 0 -4.05563 8.43826 10.80624 10.80624 0 0 0 10.80624 10.80625z" fill="#ffc431"/><path d="m24 264h464v32h-464z" fill="#d69651"/><path d="m48 296h96v32h-96z" fill="#c78640"/><path d="m96 328-40 160h-32l40-160z" fill="#b1712c"/><path d="m96 328 40 160h32l-40-160z" fill="#b1712c"/><path d="m368 296h96v32h-96z" fill="#c78640"/><path d="m216 328h80v32h-80z" fill="#ffc431"/><path d="m40 240h152a0 0 0 0 1 0 0 24 24 0 0 1 -24 24h-104a24 24 0 0 1 -24-24 0 0 0 0 1 0 0z" fill="#e0edff"/><path d="m64 176h104v64h-104z" fill="#7dafff"/><path d="m416 328-40 160h-32l40-160z" fill="#b1712c"/><path d="m416 328 40 160h32l-40-160z" fill="#b1712c"/><path d="m360 176h16a16 16 0 0 1 16 16v8a24 24 0 0 1 -24 24 24 24 0 0 1 -24-24v-8a16 16 0 0 1 16-16z" fill="#ffd873"/><path d="m296 320h-80a7.99977 7.99977 0 0 0 -8 8v32a7.99977 7.99977 0 0 0 8 8h32v28.68652l-21.65674 21.65674a7.99877 7.99877 0 0 0 -2.34326 5.65674v72h16v-40h32v40h16v-72a7.99877 7.99877 0 0 0 -2.34326-5.65674l-21.65674-21.65674v-28.68652h32a7.99977 7.99977 0 0 0 8-8v-32a7.99977 7.99977 0 0 0 -8-8zm-24 120h-32v-12.68652l16-16 16 16zm16-88h-64v-16h64z"/><path d="m120 32h272v104h16v-112a7.99977 7.99977 0 0 0 -8-8h-288a7.99977 7.99977 0 0 0 -8 8v128h16z"/><path d="m496 208a64.0727 64.0727 0 0 0 -64-64v16a48.07617 48.07617 0 0 1 45.24658 31.9964 43.74231 43.74231 0 0 0 -25.24658-7.9964h-3.05566a46.13084 46.13084 0 0 0 -20.522 4.84424 30.04109 30.04109 0 0 1 -13.36668 3.15576h-15.05566a23.94309 23.94309 0 0 0 -8-17.86945v-22.13055a16 16 0 0 0 -16 15.99994v.00006h-16v-.00006a16 16 0 0 0 -16-15.99994v22.13055a23.94309 23.94309 0 0 0 -8 17.86945v8a31.79875 31.79875 0 0 0 3.95453 15.39124l-28.89642 23.11706a18.54433 18.54433 0 0 0 -6.8252 17.4917h-8.23291v-40h16v-16h-120v16h24v40h-20.305a31.79288 31.79288 0 0 0 4.305-16 7.99977 7.99977 0 0 0 -8-8h-16v-56a7.99977 7.99977 0 0 0 -8-8h-104a7.99977 7.99977 0 0 0 -8 8v56h-16a7.99977 7.99977 0 0 0 -8 8 31.79288 31.79288 0 0 0 4.305 16h-12.305a7.99977 7.99977 0 0 0 -8 8v32a7.99977 7.99977 0 0 0 8 8h16v24a7.99977 7.99977 0 0 0 8 8h5.75366l-37.51489 150.05957a8.0001 8.0001 0 0 0 7.76123 9.94043h32a8.00059 8.00059 0 0 0 7.76123-6.05957l32.23877-128.95508 32.23877 128.95508a8.00059 8.00059 0 0 0 7.76123 6.05957h32a8.0001 8.0001 0 0 0 7.76123-9.94043l-37.51489-150.05957h5.75366a7.99977 7.99977 0 0 0 8-8v-24h208v24a7.99977 7.99977 0 0 0 8 8h5.75366l-37.51489 150.05957a8.0001 8.0001 0 0 0 7.76123 9.94043h32a8.00059 8.00059 0 0 0 7.76123-6.05957l32.23877-128.95508 32.23877 128.95508a8.00059 8.00059 0 0 0 7.76123 6.05957h32a8.0001 8.0001 0 0 0 7.76123-9.94043l-37.51489-150.05957h5.75366a7.99977 7.99977 0 0 0 8-8v-24h16a7.99977 7.99977 0 0 0 8-8v-32a7.99977 7.99977 0 0 0 -8-8h-2.08429a43.798 43.798 0 0 0 10.08429-28zm-120-24a8.00917 8.00917 0 0 1 8 8v8a16 16 0 0 1 -32 0v-8a8.00917 8.00917 0 0 1 8-8zm-56 69.19385a2.79156 2.79156 0 0 1 1.05322-2.19141l29.91449-23.93152a31.80565 31.80565 0 0 0 10.06336 4.15564l-9.56476 7.17334a18.41108 18.41108 0 0 0 -7.25331 17.6001h-21.4068a2.80927 2.80927 0 0 1 -2.8062-2.80615zm-88-37.19385h16v24a8 8 0 0 0 16 0v-24h16v40h-48zm-160-32h88v48h-88zm-21.85254 64h131.70508a16.008 16.008 0 0 1 -13.85254 8h-104a16.008 16.008 0 0 1 -13.85254-8zm-.39355 232h-15.50782l36.00025-144h15.50732zm108 0h-15.50782l-35.99975-144h15.50732zm-21.75391-160h-80v-16h80zm233.75391 160h-15.50782l36.00025-144h15.50732zm108 0h-15.50782l-35.99975-144h15.50732zm-21.75391-160h-80v-16h80zm24-32h-448v-16h448zm-28-32h-43.01514a.98491.98491 0 0 1 -.23877-1.94043l25.19434-6.29834a8.00059 8.00059 0 0 0 6.05957-7.76123 8.00917 8.00917 0 0 1 8-8h8v-16h-8a24.04332 24.04332 0 0 0 -23.11475 17.53223l-20.02 5.00488a16.96106 16.96106 0 0 0 -12.86525 16.47803c0 .33246.03094.6571.04987.98486h-29.38337a2.667 2.667 0 0 1 -1.60009-4.80029l21.33349-16a16.10027 16.10027 0 0 1 9.6001-3.19971h16v-16h-12.305a31.79684 31.79684 0 0 0 3.29242-8h16.06823a46.13084 46.13084 0 0 0 20.522-4.84424 30.04109 30.04109 0 0 1 13.36669-3.15576h3.05566a28 28 0 0 1 0 56z"/></svg>