<svg id="Layer_1" enable-background="new 0 0 256 256" height="512" viewBox="0 0 256 256" width="512" xmlns="http://www.w3.org/2000/svg"><g><g><path d="m29.619 189.077c-7.724 0-14.009-6.285-14.009-14.009v-126.892c0-7.724 6.285-14.009 14.009-14.009h196.762c7.724 0 14.009 6.285 14.009 14.009v126.892c0 7.724-6.285 14.009-14.009 14.009z" fill="#f46275"/><path d="m231.769 162.766c0 2.963-2.425 5.388-5.388 5.388h-196.762c-2.963 0-5.388-2.425-5.388-5.388v-114.59c0-2.963 2.425-5.388 5.388-5.388h196.762c2.963 0 5.388 2.425 5.388 5.388z" fill="#63bce7"/><path d="m33.991 162.766v-114.59c0-2.963 2.425-5.388 5.388-5.388h-9.76c-2.963 0-5.388 2.425-5.388 5.388v114.59c0 2.963 2.425 5.388 5.388 5.388h9.76c-2.964 0-5.388-2.424-5.388-5.388z" fill="#6377e7"/><path d="m222.01 162.766v-114.59c0-2.963-2.425-5.388-5.388-5.388h9.76c2.963 0 5.388 2.425 5.388 5.388v114.59c0 2.963-2.425 5.388-5.388 5.388h-9.76c2.963 0 5.388-2.424 5.388-5.388z" fill="#63e2e7"/><path d="m88.848 211.793h78.305v9.429h-78.305z" fill="#f46275"/><path d="m99.983 189.077h56.035v22.716h-56.035z" fill="#9e9e9e"/><path d="m88.848 211.793h9.76v9.429h-9.76z" fill="#f43075"/><path d="m99.983 189.077h9.76v22.716h-9.76z" fill="#707070"/><circle cx="128" cy="178.616" fill="#f8af23" r="4.613"/></g><g><path d="m74.867 19.278h106.266v107.78h-106.266z" fill="#f46275"/><path d="m121.749 84.286-8.942-16.753c-.652-1.221-1.924-1.984-3.309-1.984h-47.808v102.605h132.62v-83.868z" fill="#f8af23"/><g><path d="m144.32 132.176c-.171.477-.365.936-.576 1.391l4.276 4.276-8.408 8.408-4.276-4.276c-.455.212-.918.405-1.391.576v6.049h-11.887v-6.049c-.473-.171-.936-.365-1.391-.576l-4.276 4.276-8.408-8.408 4.276-4.276c-.212-.455-.405-.914-.576-1.391h-6.049v-11.887h6.049c.171-.473.365-.936.576-1.391l-4.276-4.276 8.408-8.408 4.276 4.28c.455-.212.918-.41 1.391-.581v-6.045h11.887v6.045c.473.171.936.369 1.391.581l4.276-4.28 8.408 8.408-4.276 4.276c.212.455.405.918.576 1.391h6.045v11.887z" fill="#9e9e9e"/><circle cx="128.001" cy="126.234" fill="#f46275" r="7.57"/></g><g fill="#f8af23"><path d="m159.649 42.782h-63.298c-1.294 0-2.354-1.059-2.354-2.354v-1.048c0-1.294 1.059-2.354 2.354-2.354h63.298c1.294 0 2.354 1.059 2.354 2.354v1.048c0 1.295-1.059 2.354-2.354 2.354z"/><path d="m159.649 55.667h-63.298c-1.294 0-2.354-1.059-2.354-2.354v-1.048c0-1.294 1.059-2.354 2.354-2.354h63.298c1.294 0 2.354 1.059 2.354 2.354v1.048c0 1.295-1.059 2.354-2.354 2.354z"/></g><g fill="#321f7a"><path d="m128 184.729c3.371 0 6.113-2.742 6.113-6.113s-2.742-6.113-6.113-6.113-6.113 2.742-6.113 6.113 2.742 6.113 6.113 6.113zm0-9.227c1.717 0 3.113 1.396 3.113 3.113s-1.396 3.113-3.113 3.113-3.113-1.396-3.113-3.113 1.396-3.113 3.113-3.113z"/><path d="m36.875 48.037c-2.413 0-4.375 1.963-4.375 4.375s1.962 4.375 4.375 4.375 4.375-1.963 4.375-4.375-1.962-4.375-4.375-4.375zm0 5.75c-.758 0-1.375-.617-1.375-1.375s.617-1.375 1.375-1.375 1.375.617 1.375 1.375-.616 1.375-1.375 1.375z"/><path d="m52.209 48.037c-2.413 0-4.375 1.963-4.375 4.375s1.962 4.375 4.375 4.375 4.375-1.963 4.375-4.375-1.962-4.375-4.375-4.375zm0 5.75c-.758 0-1.375-.617-1.375-1.375s.617-1.375 1.375-1.375 1.375.617 1.375 1.375-.616 1.375-1.375 1.375z"/><path d="m67.543 56.787c2.413 0 4.375-1.963 4.375-4.375s-1.962-4.375-4.375-4.375-4.375 1.963-4.375 4.375 1.962 4.375 4.375 4.375zm0-5.75c.758 0 1.375.617 1.375 1.375s-.617 1.375-1.375 1.375-1.375-.617-1.375-1.375.616-1.375 1.375-1.375z"/><path d="m27.323 235.222h-18.003c-.829 0-1.5.672-1.5 1.5s.671 1.5 1.5 1.5h18.003c.829 0 1.5-.672 1.5-1.5s-.671-1.5-1.5-1.5z"/><path d="m246.68 235.222h-18.003c-.828 0-1.5.672-1.5 1.5s.672 1.5 1.5 1.5h18.003c.828 0 1.5-.672 1.5-1.5s-.672-1.5-1.5-1.5z"/><path d="m218.48 235.222h-180.959c-.829 0-1.5.672-1.5 1.5s.671 1.5 1.5 1.5h180.959c.828 0 1.5-.672 1.5-1.5s-.672-1.5-1.5-1.5z"/><path d="m9.32 222.722h79.527 78.305 79.527c.828 0 1.5-.672 1.5-1.5s-.672-1.5-1.5-1.5h-78.027v-7.929c0-.828-.672-1.5-1.5-1.5h-9.635v-19.716h68.863c8.552 0 15.509-6.957 15.509-15.509v-126.892c0-8.552-6.957-15.509-15.509-15.509h-43.748v-13.39c0-.828-.672-1.5-1.5-1.5h-106.265c-.829 0-1.5.672-1.5 1.5v13.39h-43.748c-8.551 0-15.508 6.957-15.508 15.509v126.893c0 8.552 6.957 15.509 15.508 15.509h68.864v19.716h-9.635c-.829 0-1.5.672-1.5 1.5v7.929h-78.028c-.829 0-1.5.672-1.5 1.5s.671 1.499 1.5 1.499zm20.299-56.067c-2.144 0-3.888-1.744-3.888-3.889v-114.59c0-2.144 1.744-3.888 3.888-3.888h43.748v19.761h-11.676c-.829 0-1.5.672-1.5 1.5v101.105h-30.572zm33.572-99.606h46.308c.833 0 1.593.456 1.985 1.19l7.765 14.546h-29.88c-.829 0-1.5.672-1.5 1.5s.671 1.5 1.5 1.5h32.38 71.061v80.869h-129.619zm131.119 15.737h-11.677v-38.497h43.748c2.144 0 3.888 1.744 3.888 3.888v114.59c0 2.145-1.744 3.889-3.888 3.889h-30.571v-82.37c0-.828-.672-1.5-1.5-1.5zm-14.677-62.008v62.008h-56.984l-8.519-15.958c-.914-1.714-2.689-2.778-4.632-2.778h-33.131v-43.272zm-162.522 154.291v-126.893c0-6.897 5.611-12.509 12.508-12.509h43.748v5.621h-43.748c-3.798 0-6.888 3.09-6.888 6.888v114.59c0 3.799 3.09 6.889 6.888 6.889h32.071 132.62 32.071c3.798 0 6.888-3.09 6.888-6.889v-114.59c0-3.798-3.09-6.888-6.888-6.888h-43.748v-5.621h43.748c6.897 0 12.509 5.611 12.509 12.509v126.893c0 6.897-5.611 12.509-12.509 12.509h-70.363-56.035-70.364c-6.897 0-12.508-5.612-12.508-12.509zm84.372 15.509h53.035v19.716h-53.035zm-11.136 22.715h9.635 56.035 9.635v6.429h-75.305z"/><path d="m150.367 118.79h-4.395l3.107-3.107c.281-.281.439-.663.439-1.061s-.158-.779-.439-1.061l-8.407-8.406c-.564-.563-1.56-.562-2.121 0l-3.106 3.106v-4.394c0-.828-.672-1.5-1.5-1.5h-11.889c-.829 0-1.5.672-1.5 1.5v4.394l-3.106-3.106c-.281-.281-.663-.439-1.061-.439s-.779.158-1.061.439l-8.407 8.406c-.586.586-.586 1.535 0 2.121l3.107 3.107h-4.394c-.829 0-1.5.672-1.5 1.5v11.889c0 .828.671 1.5 1.5 1.5h4.393l-3.106 3.106c-.586.586-.586 1.535 0 2.121l8.407 8.406c.586.586 1.535.586 2.121 0l3.106-3.105v4.393c0 .828.671 1.5 1.5 1.5h11.889c.828 0 1.5-.672 1.5-1.5v-4.394l3.106 3.106c.586.586 1.535.586 2.121 0l8.407-8.406c.281-.281.439-.663.439-1.061s-.158-.779-.439-1.061l-3.106-3.106h4.394c.828 0 1.5-.672 1.5-1.5v-11.887c.001-.829-.67-1.5-1.499-1.5zm-1.5 11.888h-4.546c-.63 0-1.193.394-1.409.985-.157.433-.336.854-.529 1.268-.268.572-.148 1.25.298 1.696l3.218 3.218-6.286 6.285-3.217-3.217c-.445-.447-1.125-.566-1.696-.298-.439.205-.854.378-1.266.527-.593.216-.988.779-.988 1.41v4.546h-8.889v-4.546c0-.631-.395-1.194-.988-1.41-.411-.149-.825-.321-1.266-.527-.572-.27-1.25-.149-1.696.298l-3.217 3.217-6.286-6.285 3.217-3.218c.446-.446.565-1.123.299-1.694-.193-.414-.372-.836-.529-1.268-.216-.593-.779-.987-1.41-.987h-4.546v-8.889h4.546c.631 0 1.194-.395 1.41-.987.157-.432.336-.854.529-1.269.267-.571.147-1.248-.299-1.694l-3.217-3.218 6.286-6.285 3.217 3.218c.446.446 1.123.565 1.696.298.414-.193.836-.372 1.268-.529.592-.216.986-.779.986-1.409v-4.546h8.889v4.546c0 .63.394 1.193.985 1.409.433.157.855.336 1.269.529.574.27 1.251.15 1.696-.298l3.217-3.218 6.286 6.285-3.218 3.218c-.446.446-.565 1.124-.298 1.696.193.413.372.836.529 1.269.216.592.779.985 1.409.985h4.546z"/><path d="m128.001 117.164c-5.001 0-9.07 4.069-9.07 9.07s4.069 9.069 9.07 9.069 9.07-4.068 9.07-9.069-4.069-9.07-9.07-9.07zm0 15.139c-3.347 0-6.07-2.723-6.07-6.069 0-3.348 2.723-6.07 6.07-6.07 3.348 0 6.07 2.723 6.07 6.07.001 3.347-2.722 6.069-6.07 6.069z"/><path d="m69.644 80.198c.292.281.667.421 1.042.421.393 0 .785-.153 1.079-.458l3.102-3.213 3.102 3.213c.294.305.687.458 1.079.458.375 0 .75-.14 1.042-.421.596-.575.613-1.524.037-2.121l-3.175-3.289 3.175-3.289c.576-.597.559-1.546-.037-2.121-.597-.575-1.546-.558-2.121.037l-3.102 3.213-3.102-3.213c-.575-.595-1.524-.612-2.121-.037-.596.575-.613 1.524-.037 2.121l3.175 3.289-3.175 3.289c-.576.596-.558 1.546.037 2.121z"/><path d="m96.351 44.282h63.298c2.125 0 3.854-1.729 3.854-3.854v-1.048c0-2.125-1.729-3.854-3.854-3.854h-63.298c-2.125 0-3.854 1.729-3.854 3.854v1.048c0 2.125 1.729 3.854 3.854 3.854zm-.854-4.902c0-.463.391-.854.854-.854h63.298c.463 0 .854.391.854.854v1.048c0 .463-.391.854-.854.854h-63.298c-.463 0-.854-.391-.854-.854z"/><path d="m96.351 57.167h63.298c2.125 0 3.854-1.729 3.854-3.854v-1.048c0-2.125-1.729-3.854-3.854-3.854h-63.298c-2.125 0-3.854 1.729-3.854 3.854v1.048c0 2.125 1.729 3.854 3.854 3.854zm-.854-4.902c0-.463.391-.854.854-.854h63.298c.463 0 .854.391.854.854v1.048c0 .463-.391.854-.854.854h-63.298c-.463 0-.854-.391-.854-.854z"/><path d="m81.681 82.786h-13.503c-.829 0-1.5.672-1.5 1.5s.671 1.5 1.5 1.5h13.502c.829 0 1.5-.672 1.5-1.5s-.67-1.5-1.499-1.5z"/></g></g></g></svg>